<svg id="svg" version="1.1" xmlns="http://www.w3.org/2000/svg" xmlns:xlink="http://www.w3.org/1999/xlink" width="400" height="385.378590078329" viewBox="0, 0, 400,385.378590078329"><g id="svgg"><path id="path0" d="M163.934 119.954 C 163.934 120.162,163.500 120.441,162.970 120.574 C 162.440 120.708,162.006 120.971,162.006 121.160 C 162.006 121.350,161.758 121.504,161.455 121.504 C 161.152 121.504,160.667 121.721,160.378 121.986 C 159.621 122.680,158.669 123.236,155.834 124.638 C 154.455 125.320,152.391 126.470,151.247 127.193 C 150.102 127.917,148.796 128.649,148.343 128.821 C 147.891 128.993,146.373 129.920,144.970 130.880 C 143.567 131.841,140.968 133.445,139.194 134.446 C 137.420 135.447,133.279 138.030,129.990 140.187 C 121.817 145.547,120.155 146.577,119.671 146.577 C 119.442 146.577,119.196 146.707,119.126 146.866 C 118.990 147.170,116.127 149.130,114.673 149.913 C 109.298 152.808,106.682 154.981,103.596 159.113 C 101.609 161.774,99.613 165.538,98.790 168.177 C 98.379 169.497,98.263 170.237,97.741 174.883 C 97.466 177.322,98.089 181.824,98.983 183.858 C 99.277 184.526,99.518 185.271,99.518 185.513 C 99.518 188.346,104.065 194.505,111.129 201.241 C 120.492 210.169,124.652 214.093,126.553 215.792 C 140.123 227.919,147.348 235.556,147.348 237.770 C 147.348 239.496,148.990 237.011,149.493 234.523 C 149.823 232.894,149.908 227.800,149.654 224.879 L 149.470 222.758 161.206 222.639 C 168.517 222.564,173.231 222.365,173.708 222.110 C 174.129 221.884,175.589 221.632,176.953 221.549 C 178.317 221.466,179.729 221.239,180.092 221.045 C 180.455 220.851,181.832 220.570,183.152 220.421 C 184.472 220.271,185.646 219.998,185.759 219.814 C 185.873 219.630,186.444 219.479,187.027 219.479 C 187.611 219.479,188.425 219.224,188.837 218.913 C 189.248 218.601,190.065 218.341,190.651 218.334 C 191.238 218.328,192.019 218.157,192.387 217.954 C 192.755 217.752,194.716 216.811,196.743 215.862 C 205.994 211.534,206.773 205.219,198.457 201.950 C 196.972 201.366,195.187 200.645,194.490 200.348 C 193.794 200.050,192.991 199.807,192.707 199.807 C 192.145 199.807,189.993 198.917,185.617 196.876 C 184.071 196.154,182.636 195.564,182.429 195.564 C 182.222 195.564,181.752 195.402,181.383 195.205 C 179.995 194.460,175.628 192.478,175.375 192.478 C 175.130 192.478,168.455 188.442,167.599 187.776 C 156.827 179.400,159.718 170.816,177.361 158.790 C 179.124 157.589,180.655 156.606,180.762 156.606 C 180.870 156.606,181.510 156.193,182.186 155.689 C 183.688 154.568,185.868 153.314,190.164 151.098 C 196.716 147.720,200.393 145.736,200.752 145.389 C 200.954 145.193,201.410 145.034,201.766 145.034 C 202.122 145.034,202.629 144.773,202.893 144.455 C 203.157 144.137,203.711 143.877,204.125 143.877 C 204.538 143.877,205.137 143.616,205.455 143.298 C 205.774 142.980,206.369 142.719,206.778 142.719 C 207.187 142.719,207.522 142.565,207.522 142.375 C 207.522 142.186,207.956 141.923,208.486 141.790 C 209.016 141.656,209.450 141.396,209.450 141.210 C 209.450 141.025,208.734 141.054,207.859 141.277 C 206.516 141.618,206.214 141.583,205.918 141.054 C 205.725 140.710,204.887 140.245,204.055 140.021 C 203.223 139.796,202.313 139.384,202.033 139.104 C 201.753 138.824,200.906 138.479,200.152 138.337 C 199.397 138.196,198.409 137.653,197.955 137.131 C 197.501 136.609,196.647 136.081,196.058 135.956 C 195.468 135.832,194.684 135.567,194.316 135.367 C 193.947 135.168,193.422 135.005,193.148 135.005 C 192.874 135.005,192.353 134.658,191.989 134.233 C 191.626 133.809,191.034 133.462,190.675 133.462 C 190.315 133.462,189.662 133.145,189.224 132.758 C 188.787 132.371,187.647 131.811,186.692 131.514 C 185.738 131.217,184.627 130.672,184.223 130.303 C 183.820 129.933,183.362 129.710,183.206 129.807 C 183.050 129.903,182.694 129.707,182.416 129.371 C 181.688 128.495,178.130 126.851,177.491 127.097 C 177.194 127.210,176.756 127.068,176.518 126.781 C 176.280 126.493,174.392 125.845,172.324 125.340 C 170.256 124.835,168.563 124.310,168.563 124.173 C 168.563 124.036,167.522 123.457,166.249 122.885 C 163.836 121.803,163.386 121.041,164.609 120.113 C 165.252 119.625,165.252 119.600,164.609 119.588 C 164.238 119.581,163.934 119.746,163.934 119.954 M263.601 137.989 C 264.447 147.212,264.346 148.083,262.123 150.725 C 261.032 152.021,257.368 153.905,255.938 153.905 C 255.424 153.905,254.604 154.077,254.117 154.286 C 253.629 154.495,251.755 154.848,249.952 155.071 C 246.705 155.471,245.881 155.595,238.766 156.752 C 206.013 162.076,192.185 168.211,195.181 176.091 C 196.658 179.977,198.792 180.995,216.201 186.125 C 218.110 186.687,220.019 187.302,220.444 187.490 C 220.868 187.678,222.083 188.112,223.144 188.453 C 236.331 192.703,241.855 199.320,238.002 206.250 C 236.890 208.252,232.432 213.308,231.780 213.308 C 231.639 213.308,230.827 213.943,229.978 214.720 C 225.578 218.740,211.269 227.629,200.265 233.178 C 196.442 235.106,195.557 235.947,199.065 234.318 C 200.216 233.784,201.418 233.181,201.736 232.978 C 202.054 232.775,203.182 232.177,204.243 231.650 C 206.163 230.694,210.139 228.479,212.343 227.137 C 212.980 226.749,213.848 226.274,214.272 226.082 C 214.897 225.798,219.238 222.975,228.123 217.075 C 229.224 216.344,231.611 214.313,231.758 213.983 C 231.829 213.824,232.079 213.693,232.314 213.693 C 232.550 213.693,233.389 212.999,234.181 212.150 C 234.972 211.302,235.807 210.608,236.035 210.608 C 236.264 210.608,236.451 210.347,236.451 210.029 C 236.451 209.711,236.625 209.450,236.837 209.450 C 237.049 209.450,237.223 209.711,237.223 210.029 C 237.223 210.347,237.085 210.608,236.916 210.608 C 236.523 210.608,236.613 214.425,237.028 215.380 C 237.487 216.438,239.425 218.322,240.053 218.322 C 240.351 218.322,241.528 219.263,242.669 220.413 C 244.256 222.011,245.061 222.533,246.091 222.631 C 247.076 222.724,247.477 222.966,247.584 223.529 C 247.706 224.177,249.261 226.349,250.253 227.255 C 250.405 227.395,251.673 228.566,253.070 229.859 C 254.748 231.410,255.933 232.208,256.560 232.208 C 257.160 232.208,258.065 232.777,259.016 233.751 C 260.172 234.935,260.819 235.294,261.795 235.294 C 262.494 235.294,263.067 235.468,263.067 235.680 C 263.067 235.892,263.587 236.066,264.224 236.066 C 264.867 236.066,265.381 236.271,265.381 236.528 C 265.381 236.888,265.484 236.888,265.844 236.528 C 266.403 235.969,268.081 235.911,268.081 236.451 C 268.081 236.663,267.742 236.837,267.329 236.837 C 266.915 236.837,266.411 237.133,266.209 237.494 C 265.896 238.053,265.688 238.082,264.821 237.687 C 263.584 237.123,263.452 237.116,263.452 237.608 C 263.452 237.821,263.799 237.994,264.224 237.994 C 265.175 237.994,265.239 238.698,264.320 239.045 C 263.949 239.186,263.434 239.484,263.176 239.708 C 261.876 240.838,261.527 241.080,261.195 241.080 C 260.997 241.080,260.735 241.340,260.613 241.659 C 260.491 241.977,260.038 242.237,259.607 242.237 C 259.176 242.237,258.824 242.399,258.824 242.596 C 258.824 242.793,258.042 243.345,257.088 243.821 C 256.133 244.298,255.352 244.831,255.352 245.006 C 255.352 245.180,255.177 245.323,254.963 245.323 C 254.748 245.323,253.316 246.242,251.780 247.364 C 250.244 248.487,248.033 250.003,246.866 250.733 C 245.699 251.462,244.687 252.193,244.616 252.356 C 244.545 252.519,244.332 252.652,244.141 252.652 C 243.951 252.652,241.558 254.289,238.822 256.289 C 236.087 258.290,233.263 260.248,232.547 260.642 C 230.682 261.665,221.022 268.078,221.022 268.293 C 221.022 268.392,222.367 267.611,224.012 266.557 C 225.656 265.504,229.084 263.321,231.630 261.707 C 234.176 260.093,238.118 257.438,240.392 255.808 C 244.193 253.083,249.180 249.742,255.122 245.940 C 256.415 245.113,261.205 241.969,265.767 238.955 C 270.328 235.940,276.663 231.779,279.846 229.708 C 283.028 227.636,286.326 225.446,287.175 224.841 C 290.006 222.821,297.173 218.078,299.702 216.552 C 315.807 206.830,317.502 185.067,303.212 171.479 C 294.559 163.250,292.416 161.263,290.839 160.009 C 289.884 159.249,287.862 157.410,286.346 155.922 C 284.829 154.434,283.321 153.067,282.995 152.884 C 282.363 152.530,275.538 146.208,268.857 139.787 C 263.544 134.682,263.290 134.594,263.601 137.989 M194.021 236.196 C 193.067 236.670,191.112 237.555,189.677 238.164 C 188.243 238.773,187.158 239.360,187.267 239.469 C 187.376 239.578,187.855 239.475,188.332 239.241 C 190.179 238.334,194.474 236.451,194.723 236.439 C 194.867 236.432,195.322 236.172,195.734 235.860 C 196.812 235.046,196.032 235.198,194.021 236.196 M182.449 241.098 C 180.434 241.913,178.959 242.584,179.171 242.589 C 179.704 242.601,183.565 241.250,183.871 240.944 C 184.009 240.807,184.396 240.689,184.732 240.682 C 185.068 240.675,185.679 240.415,186.091 240.103 C 187.195 239.269,186.519 239.453,182.449 241.098 M176.663 243.234 C 176.127 243.531,175.956 243.765,176.278 243.761 C 176.596 243.756,177.290 243.505,177.821 243.202 C 178.351 242.898,178.525 242.661,178.206 242.674 C 177.888 242.688,177.194 242.939,176.663 243.234 M173.963 244.166 C 173.449 244.498,173.449 244.540,173.963 244.540 C 174.282 244.540,174.802 244.372,175.121 244.166 C 175.635 243.833,175.635 243.792,175.121 243.792 C 174.802 243.792,174.282 243.960,173.963 244.166 M171.433 245.118 C 170.459 245.855,170.881 245.862,172.280 245.133 C 172.888 244.816,173.114 244.555,172.783 244.554 C 172.453 244.553,171.845 244.806,171.433 245.118 M168.012 247.066 C 166.967 247.789,165.838 248.679,165.505 249.044 C 164.939 249.663,164.953 249.670,165.715 249.154 C 168.899 246.998,170.619 245.712,170.294 245.730 C 170.084 245.742,169.058 246.343,168.012 247.066 M160.055 257.146 C 159.841 257.709,159.723 258.339,159.792 258.546 C 159.861 258.753,160.111 258.293,160.347 257.523 C 160.843 255.906,160.631 255.632,160.055 257.146 M159.353 259.595 C 159.321 259.913,159.199 260.608,159.081 261.138 C 158.896 261.971,158.926 262.009,159.305 261.416 C 159.545 261.039,159.668 260.344,159.576 259.873 C 159.485 259.402,159.385 259.277,159.353 259.595 M215.850 271.370 C 214.384 272.302,212.995 273.266,212.764 273.513 C 212.243 274.069,217.529 270.854,218.308 270.141 C 219.230 269.298,218.667 269.579,215.850 271.370 M160.849 272.178 C 160.849 272.380,161.382 273.147,162.034 273.881 L 163.219 275.217 162.146 273.674 C 161.556 272.825,161.022 272.059,160.961 271.970 C 160.899 271.882,160.849 271.975,160.849 272.178 M209.932 275.233 C 208.819 275.963,207.907 276.647,207.907 276.753 C 207.907 277.021,211.707 274.658,211.977 274.222 C 212.296 273.706,212.164 273.771,209.932 275.233 M164.296 276.663 C 165.909 278.420,170.079 282.360,169.141 281.241 C 168.077 279.973,163.515 275.410,163.311 275.410 C 163.219 275.410,163.662 275.974,164.296 276.663 M204.243 279.108 L 203.086 280.102 204.339 279.273 C 205.029 278.816,205.593 278.368,205.593 278.277 C 205.593 277.988,205.430 278.088,204.243 279.108 M201.446 280.854 C 200.132 281.696,199.706 282.262,200.868 281.623 C 201.753 281.137,203.139 280.065,202.893 280.057 C 202.787 280.054,202.136 280.413,201.446 280.854 M170.106 282.067 C 170.106 282.158,171.017 282.992,172.131 283.921 C 173.245 284.850,173.913 285.305,173.615 284.931 C 173.016 284.181,170.106 281.805,170.106 282.067 M198.161 282.945 C 197.369 283.483,196.721 283.998,196.721 284.090 C 196.721 284.339,199.391 282.714,199.638 282.314 C 199.968 281.780,199.719 281.887,198.161 282.945 M190.946 287.579 C 190.210 288.099,189.776 288.524,189.982 288.523 C 190.188 288.522,190.878 288.094,191.514 287.572 C 193.000 286.354,192.676 286.358,190.946 287.579 M188.042 288.910 C 187.911 289.122,186.382 289.331,184.645 289.374 L 181.485 289.451 184.482 289.583 C 186.726 289.681,187.693 289.565,188.329 289.120 C 188.796 288.792,188.976 288.525,188.730 288.525 C 188.483 288.525,188.174 288.698,188.042 288.910 " stroke="none" fill="#12b3d2" fill-rule="evenodd"></path><path id="path1" d="M136.355 47.971 C 135.506 48.166,132.266 48.396,129.154 48.483 C 124.827 48.603,123.387 48.771,123.031 49.199 C 122.694 49.606,121.692 49.759,119.358 49.759 C 117.594 49.759,116.056 49.910,115.942 50.095 C 115.828 50.280,114.827 50.518,113.718 50.624 C 112.608 50.731,111.636 51.014,111.556 51.253 C 111.476 51.492,110.726 51.688,109.888 51.688 C 108.890 51.688,108.289 51.887,108.143 52.266 C 107.999 52.643,107.399 52.845,106.420 52.845 C 105.342 52.845,104.918 53.008,104.918 53.423 C 104.918 53.825,104.514 54.002,103.600 54.002 C 102.875 54.002,102.224 54.174,102.154 54.384 C 102.083 54.595,101.548 54.806,100.964 54.854 C 100.381 54.902,99.904 55.164,99.904 55.436 C 99.904 55.708,99.464 55.931,98.927 55.931 C 98.390 55.931,97.851 56.191,97.729 56.509 C 97.607 56.827,97.091 57.088,96.584 57.088 C 96.076 57.088,95.661 57.261,95.661 57.473 C 95.661 57.686,95.235 57.859,94.715 57.859 C 94.196 57.859,93.631 58.076,93.462 58.341 C 93.105 58.898,91.901 59.712,90.962 60.030 C 90.605 60.151,90.220 60.493,90.106 60.790 C 89.992 61.088,89.546 61.331,89.115 61.331 C 88.684 61.331,88.332 61.486,88.332 61.675 C 88.332 61.864,87.898 62.127,87.367 62.261 C 86.837 62.394,86.403 62.673,86.403 62.881 C 86.403 63.089,86.143 63.259,85.824 63.259 C 85.506 63.259,85.246 63.520,85.246 63.838 C 85.246 64.156,84.986 64.417,84.667 64.417 C 84.349 64.417,84.089 64.590,84.089 64.802 C 84.089 65.014,83.828 65.188,83.510 65.188 C 83.192 65.188,82.932 65.366,82.932 65.583 C 82.932 65.801,82.498 66.144,81.967 66.345 C 81.437 66.547,81.003 66.890,81.003 67.107 C 81.003 67.325,80.743 67.502,80.424 67.502 C 80.106 67.502,79.846 67.733,79.846 68.016 C 79.846 68.298,79.412 68.761,78.881 69.045 C 78.351 69.329,77.917 69.792,77.917 70.075 C 77.917 70.357,77.657 70.588,77.338 70.588 C 77.020 70.588,76.760 70.849,76.760 71.167 C 76.760 71.485,76.500 71.745,76.181 71.745 C 75.863 71.745,75.603 72.006,75.603 72.324 C 75.603 72.642,75.429 72.903,75.217 72.903 C 75.005 72.903,74.831 73.084,74.831 73.305 C 74.831 73.752,74.557 74.104,72.324 76.523 C 70.572 78.420,69.894 79.357,69.568 80.328 C 69.443 80.699,69.101 81.003,68.807 81.003 C 68.514 81.003,68.274 81.263,68.274 81.581 C 68.274 81.900,68.100 82.160,67.888 82.160 C 67.676 82.160,67.502 82.594,67.502 83.124 C 67.502 83.724,67.284 84.089,66.924 84.089 C 66.606 84.089,66.345 84.331,66.345 84.626 C 66.345 84.922,66.085 85.263,65.767 85.385 C 65.448 85.508,65.188 85.960,65.188 86.391 C 65.188 86.822,65.014 87.175,64.802 87.175 C 64.590 87.175,64.417 87.522,64.417 87.946 C 64.417 88.370,64.255 88.717,64.057 88.717 C 63.859 88.717,63.578 89.108,63.433 89.585 C 63.287 90.063,62.952 90.714,62.687 91.032 C 62.422 91.350,62.092 92.088,61.954 92.671 C 61.815 93.255,61.532 93.732,61.323 93.732 C 61.115 93.732,60.945 94.166,60.945 94.696 C 60.945 95.227,60.771 95.661,60.559 95.661 C 60.347 95.661,60.174 96.181,60.174 96.818 C 60.174 97.589,59.981 97.975,59.595 97.975 C 59.212 97.975,59.016 98.358,59.016 99.105 C 59.016 99.726,58.756 100.495,58.438 100.813 C 58.120 101.131,57.859 101.914,57.859 102.553 C 57.859 103.192,57.686 103.823,57.473 103.954 C 57.261 104.085,57.088 104.942,57.088 105.858 C 57.088 106.868,56.860 107.713,56.509 108.004 C 56.137 108.312,55.931 109.167,55.931 110.393 C 55.931 111.576,55.710 112.522,55.352 112.881 C 54.931 113.301,54.773 114.326,54.773 116.633 C 54.773 118.658,54.599 119.982,54.291 120.289 C 53.497 121.083,53.402 257.475,54.195 258.685 C 54.586 259.282,54.773 260.557,54.773 262.626 C 54.773 264.988,54.905 265.735,55.352 265.906 C 55.785 266.072,55.931 266.764,55.931 268.647 C 55.931 270.630,56.054 271.167,56.509 271.167 C 56.945 271.167,57.088 271.636,57.088 273.073 C 57.088 274.121,57.261 275.086,57.473 275.217 C 57.686 275.348,57.859 275.846,57.859 276.323 C 57.859 276.801,58.114 277.528,58.426 277.940 C 58.737 278.352,58.997 279.085,59.004 279.569 C 59.011 280.053,59.277 280.548,59.595 280.671 C 59.921 280.796,60.174 281.370,60.174 281.986 C 60.174 282.587,60.347 283.186,60.559 283.317 C 60.771 283.448,60.945 283.880,60.945 284.277 C 60.945 284.673,61.205 285.258,61.524 285.577 C 61.842 285.895,62.102 286.496,62.102 286.913 C 62.102 287.330,62.363 287.771,62.681 287.893 C 62.999 288.015,63.259 288.554,63.259 289.091 C 63.259 289.702,63.476 290.068,63.838 290.068 C 64.156 290.068,64.417 290.328,64.417 290.646 C 64.417 290.964,64.590 291.225,64.802 291.225 C 65.014 291.225,65.188 291.659,65.188 292.189 C 65.188 292.789,65.407 293.153,65.767 293.153 C 66.085 293.153,66.345 293.414,66.345 293.732 C 66.345 294.050,66.606 294.311,66.924 294.311 C 67.284 294.311,67.502 294.675,67.502 295.275 C 67.502 295.805,67.676 296.239,67.888 296.239 C 68.100 296.239,68.274 296.500,68.274 296.818 C 68.274 297.136,68.534 297.396,68.852 297.396 C 69.177 297.396,69.431 297.741,69.431 298.180 C 69.431 298.611,69.691 299.063,70.010 299.185 C 70.328 299.308,70.588 299.586,70.588 299.804 C 70.588 300.022,70.979 300.579,71.456 301.041 C 72.474 302.027,73.220 303.106,73.537 304.050 C 73.662 304.421,74.004 304.725,74.298 304.725 C 74.591 304.725,74.831 304.911,74.831 305.138 C 74.831 305.672,75.813 306.654,76.347 306.654 C 76.574 306.654,76.760 306.914,76.760 307.232 C 76.760 307.551,77.020 307.811,77.338 307.811 C 77.657 307.811,77.917 307.998,77.917 308.226 C 77.917 308.639,79.991 310.897,80.371 310.897 C 80.480 310.897,81.140 311.418,81.837 312.054 C 82.533 312.690,83.325 313.211,83.596 313.211 C 83.867 313.211,84.089 313.385,84.089 313.597 C 84.089 313.809,84.349 313.983,84.667 313.983 C 84.986 313.983,85.246 314.202,85.246 314.470 C 85.246 314.933,86.175 315.573,87.657 316.132 C 88.028 316.272,88.332 316.540,88.332 316.728 C 88.332 316.915,88.574 317.068,88.869 317.068 C 89.165 317.068,89.506 317.329,89.628 317.647 C 89.751 317.965,90.203 318.226,90.634 318.226 C 91.073 318.226,91.418 318.480,91.418 318.804 C 91.418 319.164,91.782 319.383,92.382 319.383 C 92.982 319.383,93.346 319.601,93.346 319.961 C 93.346 320.284,93.690 320.540,94.123 320.540 C 95.027 320.540,96.489 321.293,96.933 321.986 C 97.103 322.252,97.655 322.469,98.159 322.469 C 98.664 322.469,99.337 322.729,99.656 323.047 C 99.974 323.365,100.594 323.626,101.033 323.626 C 101.473 323.626,101.832 323.799,101.832 324.012 C 101.832 324.224,102.279 324.397,102.824 324.397 C 103.370 324.397,104.076 324.658,104.395 324.976 C 104.713 325.294,105.463 325.554,106.062 325.554 C 106.673 325.554,107.247 325.808,107.372 326.133 C 107.517 326.511,108.117 326.712,109.102 326.712 C 109.931 326.712,110.812 326.955,111.059 327.253 C 111.541 327.834,113.447 328.175,118.033 328.499 C 119.624 328.612,121.186 328.934,121.504 329.215 C 121.924 329.586,123.671 329.742,127.859 329.781 C 132.287 329.822,133.778 329.964,134.249 330.390 C 135.200 331.251,262.736 331.239,263.450 330.378 C 263.842 329.907,265.053 329.797,269.876 329.797 C 274.804 329.797,275.858 329.699,276.042 329.219 C 276.213 328.773,276.955 328.640,279.286 328.640 C 280.948 328.640,282.415 328.467,282.546 328.255 C 282.677 328.042,283.598 327.863,284.594 327.857 C 285.589 327.850,286.740 327.589,287.152 327.278 C 287.564 326.967,288.562 326.712,289.370 326.712 C 290.419 326.712,290.839 326.546,290.839 326.133 C 290.839 325.715,291.268 325.554,292.382 325.554 C 293.496 325.554,293.925 325.394,293.925 324.976 C 293.925 324.558,294.353 324.397,295.468 324.397 C 296.316 324.397,297.011 324.224,297.011 324.012 C 297.011 323.799,297.450 323.626,297.987 323.626 C 298.524 323.626,299.063 323.365,299.185 323.047 C 299.308 322.729,299.823 322.469,300.331 322.469 C 300.894 322.469,301.254 322.243,301.254 321.890 C 301.254 321.572,301.574 321.311,301.966 321.311 C 302.762 321.311,305.179 320.207,305.531 319.683 C 305.656 319.497,306.134 319.316,306.592 319.281 C 307.050 319.247,307.425 319.036,307.425 318.814 C 307.425 318.423,308.432 317.763,309.836 317.233 C 310.207 317.093,310.511 316.825,310.511 316.638 C 310.511 316.450,310.753 316.297,311.048 316.297 C 311.344 316.297,311.686 316.037,311.808 315.718 C 311.930 315.400,312.382 315.140,312.813 315.140 C 313.253 315.140,313.597 314.886,313.597 314.561 C 313.597 314.243,313.857 313.983,314.176 313.983 C 314.494 313.983,314.754 313.809,314.754 313.597 C 314.754 313.385,315.014 313.211,315.333 313.211 C 315.651 313.211,315.911 312.951,315.911 312.633 C 315.911 312.273,316.276 312.054,316.876 312.054 C 317.476 312.054,317.840 311.835,317.840 311.475 C 317.840 311.157,318.007 310.897,318.211 310.897 C 318.730 310.897,322.083 307.586,322.083 307.074 C 322.083 306.843,322.270 306.654,322.498 306.654 C 323.267 306.654,325.688 303.807,326.189 302.314 C 326.314 301.943,326.656 301.639,326.950 301.639 C 327.243 301.639,327.483 301.398,327.483 301.102 C 327.483 300.806,327.754 300.461,328.086 300.333 C 328.418 300.206,328.581 299.927,328.449 299.713 C 328.317 299.500,328.480 299.325,328.810 299.325 C 329.141 299.325,329.412 299.065,329.412 298.746 C 329.412 298.428,329.582 298.168,329.790 298.168 C 329.998 298.168,330.277 297.734,330.411 297.203 C 330.544 296.673,330.894 296.239,331.189 296.239 C 331.485 296.239,331.726 295.979,331.726 295.661 C 331.726 295.342,331.900 295.082,332.112 295.082 C 332.324 295.082,332.498 294.648,332.498 294.118 C 332.498 293.518,332.716 293.153,333.076 293.153 C 333.394 293.153,333.655 292.967,333.655 292.740 C 333.655 292.513,333.915 292.066,334.233 291.748 C 334.552 291.430,334.812 290.825,334.812 290.403 C 334.812 289.981,334.986 289.744,335.198 289.875 C 335.423 290.014,335.583 289.621,335.583 288.933 C 335.583 288.141,335.774 287.753,336.162 287.753 C 336.501 287.753,336.746 287.394,336.753 286.885 C 336.760 286.408,337.020 285.680,337.331 285.269 C 337.643 284.857,337.898 284.200,337.898 283.810 C 337.898 283.420,338.158 283.000,338.476 282.878 C 338.795 282.756,339.055 282.241,339.055 281.733 C 339.055 281.225,339.229 280.810,339.441 280.810 C 339.653 280.810,339.832 280.333,339.839 279.749 C 339.845 279.166,340.106 278.352,340.417 277.940 C 340.729 277.528,340.989 276.834,340.996 276.397 C 341.003 275.960,341.263 275.266,341.574 274.854 C 341.886 274.442,342.141 273.444,342.141 272.636 C 342.141 271.828,342.314 271.167,342.527 271.167 C 342.739 271.167,342.912 270.231,342.912 269.087 C 342.912 267.593,343.076 266.944,343.491 266.784 C 343.928 266.617,344.069 265.910,344.069 263.897 C 344.069 262.009,344.237 261.094,344.643 260.756 C 345.143 260.341,345.233 254.693,345.342 216.640 C 345.411 192.637,345.671 165.796,345.920 156.991 C 346.248 145.424,346.260 139.432,345.963 135.391 C 345.737 132.314,345.470 127.251,345.370 124.139 C 345.232 119.836,345.055 118.370,344.629 118.017 C 344.232 117.688,344.069 116.721,344.069 114.695 C 344.069 112.510,343.933 111.785,343.491 111.615 C 343.076 111.456,342.912 110.806,342.912 109.313 C 342.912 108.169,342.739 107.232,342.527 107.232 C 342.314 107.232,342.141 106.612,342.141 105.855 C 342.141 105.097,341.880 104.217,341.562 103.899 C 341.244 103.580,340.984 102.812,340.984 102.190 C 340.984 101.443,340.788 101.061,340.405 101.061 C 339.989 101.061,339.826 100.635,339.826 99.541 C 339.826 98.705,339.653 97.913,339.441 97.782 C 339.229 97.651,339.055 97.201,339.055 96.783 C 339.055 96.364,338.795 95.922,338.476 95.800 C 338.158 95.678,337.898 95.184,337.898 94.702 C 337.898 94.220,337.637 93.610,337.319 93.346 C 337.001 93.082,336.741 92.552,336.741 92.169 C 336.741 91.786,336.480 91.212,336.162 90.894 C 335.844 90.576,335.583 90.129,335.583 89.902 C 335.583 89.675,335.410 89.489,335.198 89.489 C 334.986 89.489,334.812 88.968,334.812 88.332 C 334.812 87.560,334.619 87.175,334.233 87.175 C 333.873 87.175,333.655 86.810,333.655 86.210 C 333.655 85.610,333.436 85.246,333.076 85.246 C 332.758 85.246,332.498 84.986,332.498 84.667 C 332.498 84.349,332.343 84.089,332.154 84.089 C 331.965 84.089,331.701 83.655,331.568 83.124 C 331.435 82.594,331.155 82.160,330.947 82.160 C 330.739 82.160,330.569 81.900,330.569 81.581 C 330.569 81.263,330.309 81.003,329.990 81.003 C 329.630 81.003,329.412 80.639,329.412 80.039 C 329.412 79.439,329.193 79.074,328.833 79.074 C 328.515 79.074,328.255 78.814,328.255 78.496 C 328.255 78.177,328.081 77.917,327.869 77.917 C 327.657 77.917,327.483 77.657,327.483 77.338 C 327.483 77.020,327.300 76.760,327.076 76.760 C 326.548 76.760,324.458 74.472,324.176 73.586 C 324.057 73.210,323.798 72.903,323.600 72.903 C 323.402 72.903,323.240 72.642,323.240 72.324 C 323.240 72.006,322.980 71.745,322.662 71.745 C 322.343 71.745,322.083 71.485,322.083 71.167 C 322.083 70.849,321.823 70.588,321.504 70.588 C 321.186 70.588,320.926 70.328,320.926 70.010 C 320.926 69.691,320.665 69.431,320.347 69.431 C 320.029 69.431,319.769 69.257,319.769 69.045 C 319.769 68.833,319.552 68.654,319.286 68.647 C 318.643 68.630,317.068 67.294,317.068 66.766 C 317.068 66.534,316.808 66.345,316.490 66.345 C 316.172 66.345,315.911 66.085,315.911 65.767 C 315.911 65.448,315.651 65.188,315.333 65.188 C 315.014 65.188,314.754 65.014,314.754 64.802 C 314.754 64.590,314.320 64.417,313.790 64.417 C 313.190 64.417,312.825 64.198,312.825 63.838 C 312.825 63.520,312.565 63.259,312.247 63.259 C 311.929 63.259,311.668 62.999,311.668 62.681 C 311.668 62.363,311.443 62.102,311.167 62.102 C 310.281 62.102,308.589 61.154,308.585 60.656 C 308.584 60.391,308.149 60.174,307.618 60.174 C 307.018 60.174,306.654 59.955,306.654 59.595 C 306.654 59.209,306.268 59.016,305.497 59.016 C 304.787 59.016,304.339 58.817,304.339 58.500 C 304.339 58.215,303.602 57.743,302.700 57.450 C 301.798 57.158,300.831 56.696,300.551 56.424 C 300.271 56.153,299.620 55.931,299.105 55.931 C 298.529 55.931,298.168 55.707,298.168 55.352 C 298.168 54.966,297.782 54.773,297.011 54.773 C 296.374 54.773,295.853 54.600,295.853 54.388 C 295.853 54.176,295.159 54.002,294.311 54.002 C 293.196 54.002,292.768 53.841,292.768 53.423 C 292.768 53.005,292.339 52.845,291.225 52.845 C 290.110 52.845,289.682 52.684,289.682 52.266 C 289.682 51.853,289.262 51.688,288.216 51.688 C 287.410 51.688,286.559 51.497,286.326 51.263 C 286.093 51.030,284.973 50.759,283.838 50.661 C 282.703 50.563,281.609 50.320,281.408 50.121 C 281.206 49.922,279.709 49.759,278.080 49.759 C 275.918 49.759,274.989 49.603,274.638 49.180 C 274.254 48.717,273.096 48.602,268.837 48.602 C 264.924 48.602,263.474 48.474,263.356 48.120 C 263.158 47.527,138.915 47.382,136.355 47.971 M220.433 91.977 C 223.922 93.795,229.046 98.313,234.040 103.974 C 240.813 111.651,242.150 121.293,237.479 128.773 C 235.378 132.137,233.169 133.766,228.331 135.518 C 224.301 136.977,221.895 137.892,220.444 138.514 C 220.019 138.696,218.804 139.126,217.743 139.470 C 216.683 139.814,215.294 140.321,214.658 140.596 C 214.021 140.872,212.112 141.645,210.415 142.314 C 208.717 142.984,206.982 143.686,206.557 143.876 C 206.133 144.065,204.918 144.596,203.857 145.055 C 202.797 145.514,198.978 147.366,195.371 149.172 C 165.801 163.974,155.615 176.175,165.323 185.164 C 168.548 188.150,179.095 194.407,180.904 194.407 C 181.123 194.407,181.604 194.574,181.972 194.778 C 182.341 194.982,183.597 195.567,184.764 196.077 C 185.931 196.587,187.666 197.354,188.621 197.781 C 189.576 198.209,191.745 199.024,193.443 199.592 C 202.029 202.470,203.844 203.799,204.628 207.780 C 205.033 209.836,202.906 213.119,200.173 214.655 C 189.339 220.743,174.537 223.522,154.595 223.214 L 150.077 223.144 150.313 227.267 C 150.742 234.757,148.292 241.914,146.793 237.552 C 146.154 235.694,143.393 232.174,140.167 229.104 C 136.684 225.791,126.945 216.665,125.367 215.236 C 122.474 212.617,108.144 199.124,106.037 197.035 C 102.778 193.803,98.604 185.986,97.734 181.485 C 97.365 179.575,97.354 173.246,97.715 170.778 C 98.747 163.725,105.553 154.211,111.952 150.876 C 113.903 149.860,114.745 149.358,116.297 148.288 C 116.933 147.849,119.528 146.210,122.063 144.646 C 124.597 143.081,128.040 140.879,129.714 139.753 C 131.387 138.627,132.900 137.705,133.077 137.705 C 133.253 137.705,133.455 137.554,133.526 137.370 C 133.597 137.186,135.377 136.044,137.483 134.832 C 139.588 133.620,142.712 131.712,144.426 130.591 C 146.139 129.470,148.582 127.981,149.855 127.281 C 151.128 126.581,154.174 124.756,156.625 123.225 C 159.075 121.693,162.720 119.489,164.725 118.326 C 166.730 117.164,169.759 115.348,171.456 114.292 C 176.193 111.345,180.259 108.947,180.976 108.678 C 181.332 108.544,183.328 107.319,185.411 105.955 C 187.495 104.592,189.778 103.181,190.485 102.821 C 191.192 102.460,193.017 101.328,194.541 100.304 C 196.065 99.280,198.004 98.068,198.849 97.610 C 199.694 97.152,200.646 96.620,200.964 96.427 C 211.466 90.052,209.925 90.715,214.340 90.677 C 217.655 90.648,218.043 90.731,220.433 91.977 M268.790 139.344 C 276.224 146.466,282.376 152.147,283.060 152.522 C 283.414 152.715,285.178 154.307,286.982 156.057 C 288.785 157.808,290.868 159.722,291.610 160.309 C 292.353 160.896,294.873 163.211,297.211 165.452 C 299.549 167.694,302.185 170.183,303.069 170.984 C 318.213 184.701,315.734 209.091,298.336 217.544 C 297.957 217.728,291.444 222.150,287.347 225.006 C 286.380 225.679,282.777 228.052,279.340 230.280 C 275.902 232.507,271.485 235.405,269.525 236.719 C 267.564 238.033,264.430 240.116,262.560 241.348 C 260.690 242.580,255.931 245.714,251.985 248.312 C 248.039 250.911,244.748 253.038,244.672 253.038 C 244.596 253.038,242.672 254.392,240.396 256.047 C 238.120 257.702,234.870 259.912,233.173 260.957 C 231.475 262.002,230.029 262.991,229.958 263.154 C 229.887 263.318,229.652 263.452,229.435 263.452 C 229.218 263.452,228.407 263.930,227.634 264.513 C 226.860 265.096,225.880 265.782,225.457 266.038 C 222.370 267.897,214.516 272.933,207.522 277.538 C 202.960 280.540,197.580 284.058,195.564 285.354 C 193.549 286.650,191.698 287.887,191.451 288.102 C 191.204 288.317,190.551 288.606,190.000 288.745 C 189.450 288.883,188.904 289.150,188.787 289.339 C 188.505 289.796,181.079 289.780,180.226 289.320 C 179.858 289.121,178.740 288.574,177.743 288.104 C 173.607 286.155,163.366 276.857,161.000 272.903 C 154.766 262.484,161.009 248.134,173.578 243.994 C 185.947 239.918,202.778 232.250,211.853 226.554 C 212.645 226.057,213.391 225.651,213.511 225.651 C 213.632 225.651,214.720 225.005,215.930 224.216 C 217.139 223.427,218.419 222.603,218.773 222.384 C 243.398 207.180,245.317 198.318,225.844 189.735 C 224.495 189.141,219.716 187.411,218.515 187.082 C 214.896 186.092,211.414 185.012,210.305 184.536 C 209.608 184.237,208.621 183.992,208.110 183.992 C 207.599 183.992,207.086 183.838,206.970 183.650 C 206.854 183.462,206.106 183.188,205.308 183.040 C 201.490 182.335,195.962 178.909,195.133 176.735 C 193.295 171.913,196.478 167.825,204.436 164.790 C 209.016 163.043,212.717 161.958,221.794 159.704 C 222.536 159.519,226.008 158.831,229.508 158.175 C 233.009 157.519,236.741 156.812,237.801 156.604 C 238.862 156.396,241.032 156.114,242.623 155.977 C 244.214 155.840,245.800 155.583,246.147 155.406 C 246.494 155.228,247.795 154.992,249.040 154.880 C 261.141 153.796,264.301 150.794,263.570 141.076 C 263.008 133.589,262.840 133.644,268.790 139.344 " stroke="none" fill="#e8f3fb" fill-rule="evenodd"></path><path id="path2" d="M236.451 210.029 C 236.451 210.347,236.264 210.608,236.035 210.608 C 235.807 210.608,234.972 211.302,234.181 212.150 C 233.389 212.999,232.550 213.693,232.314 213.693 C 232.079 213.693,231.829 213.824,231.758 213.983 C 231.611 214.313,229.224 216.344,228.123 217.075 C 219.238 222.975,214.897 225.798,214.272 226.082 C 213.848 226.274,212.980 226.749,212.343 227.137 C 210.139 228.479,206.163 230.694,204.243 231.650 C 203.182 232.177,202.054 232.775,201.736 232.978 C 200.799 233.576,192.211 237.542,188.235 239.213 C 187.705 239.436,186.750 239.844,186.114 240.119 C 185.477 240.394,184.609 240.749,184.185 240.907 C 181.681 241.839,176.920 243.526,174.928 244.187 C 161.420 248.668,155.042 262.231,161.537 272.660 C 164.817 277.926,175.636 287.123,180.548 288.820 C 182.198 289.390,187.705 289.456,188.042 288.910 C 188.174 288.698,188.551 288.525,188.881 288.525 C 189.476 288.525,193.225 286.316,197.701 283.329 C 198.982 282.474,203.889 279.257,208.605 276.181 C 213.322 273.105,220.366 268.505,224.260 265.959 C 228.153 263.414,231.925 260.995,232.641 260.585 C 233.358 260.175,236.161 258.222,238.870 256.246 C 241.579 254.269,243.951 252.652,244.141 252.652 C 244.332 252.652,244.545 252.519,244.616 252.356 C 244.687 252.193,245.699 251.462,246.866 250.733 C 248.033 250.003,250.244 248.487,251.780 247.364 C 253.316 246.242,254.748 245.323,254.963 245.323 C 255.177 245.323,255.352 245.180,255.352 245.006 C 255.352 244.831,256.133 244.298,257.088 243.821 C 258.042 243.345,258.824 242.793,258.824 242.596 C 258.824 242.399,259.176 242.237,259.607 242.237 C 260.038 242.237,260.491 241.977,260.613 241.659 C 260.735 241.340,261.002 241.080,261.207 241.080 C 261.411 241.080,261.821 240.863,262.116 240.598 C 263.212 239.615,263.661 239.299,264.320 239.048 C 265.239 238.697,265.175 237.994,264.224 237.994 C 263.799 237.994,263.452 237.821,263.452 237.608 C 263.452 237.116,263.584 237.123,264.821 237.687 C 265.688 238.082,265.896 238.053,266.209 237.494 C 266.411 237.133,266.915 236.837,267.329 236.837 C 267.742 236.837,268.081 236.663,268.081 236.451 C 268.081 235.911,266.403 235.969,265.844 236.528 C 265.484 236.888,265.381 236.888,265.381 236.528 C 265.381 236.271,264.867 236.066,264.224 236.066 C 263.587 236.066,263.067 235.892,263.067 235.680 C 263.067 235.468,262.494 235.294,261.795 235.294 C 260.819 235.294,260.172 234.935,259.016 233.751 C 258.065 232.777,257.160 232.208,256.560 232.208 C 255.933 232.208,254.748 231.410,253.070 229.859 C 251.673 228.566,250.405 227.395,250.253 227.255 C 249.261 226.349,247.706 224.177,247.584 223.529 C 247.477 222.966,247.076 222.724,246.091 222.631 C 245.061 222.533,244.256 222.011,242.669 220.413 C 241.528 219.263,240.351 218.322,240.053 218.322 C 239.425 218.322,237.487 216.438,237.028 215.380 C 236.613 214.425,236.523 210.608,236.916 210.608 C 237.085 210.608,237.223 210.347,237.223 210.029 C 237.223 209.711,237.049 209.450,236.837 209.450 C 236.625 209.450,236.451 209.711,236.451 210.029 " stroke="none" fill="#0449bf" fill-rule="evenodd"></path><path id="path3" d="M194.214 100.511 C 193.153 101.255,191.591 102.225,190.743 102.668 C 189.894 103.111,187.495 104.590,185.411 105.954 C 183.328 107.318,181.332 108.544,180.976 108.678 C 180.259 108.947,176.193 111.345,171.456 114.292 C 169.759 115.348,166.730 117.164,164.725 118.326 C 162.720 119.489,159.075 121.693,156.625 123.225 C 154.174 124.756,151.128 126.581,149.855 127.281 C 148.582 127.981,146.139 129.470,144.426 130.591 C 142.712 131.712,139.588 133.620,137.483 134.832 C 135.377 136.044,133.597 137.186,133.526 137.370 C 133.455 137.554,133.253 137.705,133.077 137.705 C 132.900 137.705,131.387 138.627,129.714 139.753 C 128.040 140.879,124.597 143.081,122.063 144.646 C 119.528 146.210,116.933 147.849,116.297 148.288 C 114.745 149.358,113.903 149.860,111.952 150.876 C 105.553 154.211,98.747 163.725,97.715 170.778 C 97.354 173.246,97.365 179.575,97.734 181.485 C 98.604 185.986,102.778 193.803,106.037 197.035 C 108.144 199.124,122.474 212.617,125.367 215.236 C 126.945 216.665,136.684 225.791,140.167 229.104 C 143.393 232.174,146.154 235.694,146.793 237.552 C 148.292 241.914,150.742 234.757,150.313 227.267 L 150.077 223.144 154.595 223.214 C 174.537 223.522,189.339 220.743,200.173 214.655 C 206.342 211.189,206.061 204.813,199.614 201.977 C 198.766 201.603,197.724 201.144,197.300 200.956 C 196.876 200.767,195.140 200.151,193.443 199.586 C 191.745 199.021,189.576 198.209,188.621 197.781 C 187.666 197.354,185.931 196.587,184.764 196.077 C 183.597 195.567,182.341 194.982,181.972 194.778 C 181.604 194.574,181.123 194.407,180.904 194.407 C 179.095 194.407,168.548 188.150,165.323 185.164 C 155.615 176.175,165.801 163.974,195.371 149.172 C 198.978 147.366,202.797 145.514,203.857 145.055 C 204.918 144.596,206.133 144.065,206.557 143.876 C 206.982 143.686,208.717 142.984,210.415 142.314 C 212.112 141.645,214.021 140.872,214.658 140.596 C 215.294 140.321,216.683 139.814,217.743 139.470 C 218.804 139.126,220.019 138.696,220.444 138.514 C 221.895 137.892,224.301 136.977,228.331 135.518 C 233.174 133.764,235.385 132.132,237.468 128.773 C 239.588 125.357,239.874 124.575,240.090 121.608 C 240.221 119.818,240.178 119.361,239.954 120.154 C 239.775 120.791,239.608 121.095,239.583 120.829 C 239.558 120.564,239.525 120.217,239.510 120.058 C 239.495 119.899,239.207 119.465,238.871 119.094 C 238.535 118.722,238.417 118.413,238.609 118.407 C 238.801 118.400,238.646 118.213,238.263 117.991 C 237.783 117.711,237.419 117.710,237.086 117.986 C 236.387 118.566,235.006 118.104,232.594 116.483 C 231.316 115.624,229.771 114.954,228.707 114.796 C 227.731 114.651,226.094 113.977,225.043 113.286 C 221.947 111.251,216.401 108.748,213.697 108.163 C 213.168 108.049,212.460 107.706,212.123 107.401 C 211.787 107.096,211.384 106.847,211.228 106.847 C 211.073 106.847,209.698 106.253,208.173 105.527 C 206.648 104.802,204.015 103.566,202.322 102.780 C 200.630 101.995,199.067 101.124,198.851 100.845 C 198.634 100.566,197.936 100.283,197.300 100.217 C 196.626 100.147,196.183 99.895,196.239 99.614 C 196.365 98.984,196.440 98.951,194.214 100.511 M164.609 120.113 C 163.386 121.041,163.836 121.803,166.249 122.885 C 167.522 123.457,168.563 124.036,168.563 124.173 C 168.563 124.310,170.256 124.835,172.324 125.340 C 174.392 125.845,176.280 126.493,176.518 126.781 C 176.756 127.068,177.194 127.210,177.491 127.097 C 178.130 126.851,181.688 128.495,182.416 129.371 C 182.694 129.707,183.050 129.903,183.206 129.807 C 183.362 129.710,183.820 129.933,184.223 130.303 C 184.627 130.672,185.738 131.217,186.692 131.514 C 187.647 131.811,188.787 132.371,189.224 132.758 C 189.662 133.145,190.315 133.462,190.675 133.462 C 191.034 133.462,191.626 133.809,191.989 134.233 C 192.353 134.658,192.874 135.005,193.148 135.005 C 193.422 135.005,193.947 135.168,194.316 135.367 C 194.684 135.567,195.468 135.832,196.058 135.956 C 196.647 136.081,197.501 136.609,197.955 137.131 C 198.409 137.653,199.397 138.196,200.152 138.337 C 200.906 138.479,201.753 138.824,202.033 139.104 C 202.313 139.384,203.223 139.796,204.055 140.021 C 204.887 140.245,205.725 140.710,205.918 141.054 C 206.214 141.583,206.516 141.618,207.859 141.277 C 208.734 141.054,209.450 141.025,209.450 141.210 C 209.450 141.396,209.016 141.656,208.486 141.790 C 207.956 141.923,207.522 142.186,207.522 142.375 C 207.522 142.565,207.187 142.719,206.778 142.719 C 206.369 142.719,205.774 142.980,205.455 143.298 C 205.137 143.616,204.538 143.877,204.125 143.877 C 203.711 143.877,203.157 144.137,202.893 144.455 C 202.629 144.773,202.122 145.034,201.766 145.034 C 201.410 145.034,200.954 145.193,200.752 145.389 C 200.393 145.736,196.716 147.720,190.164 151.098 C 185.868 153.314,183.688 154.568,182.186 155.689 C 181.510 156.193,180.870 156.606,180.762 156.606 C 180.655 156.606,179.124 157.589,177.361 158.790 C 159.718 170.816,156.827 179.400,167.599 187.776 C 168.455 188.442,175.130 192.478,175.375 192.478 C 175.628 192.478,179.995 194.460,181.383 195.205 C 181.752 195.402,182.222 195.564,182.429 195.564 C 182.636 195.564,184.071 196.154,185.617 196.876 C 189.993 198.917,192.145 199.807,192.707 199.807 C 192.991 199.807,193.794 200.050,194.490 200.348 C 195.187 200.645,196.972 201.366,198.457 201.950 C 206.773 205.219,205.994 211.534,196.743 215.862 C 194.716 216.811,192.755 217.752,192.387 217.954 C 192.019 218.157,191.238 218.328,190.651 218.334 C 190.065 218.341,189.248 218.601,188.837 218.913 C 188.425 219.224,187.611 219.479,187.027 219.479 C 186.444 219.479,185.873 219.630,185.759 219.814 C 185.646 219.998,184.472 220.271,183.152 220.421 C 181.832 220.570,180.455 220.851,180.092 221.045 C 179.729 221.239,178.317 221.466,176.953 221.549 C 175.589 221.632,174.129 221.884,173.708 222.110 C 173.231 222.365,168.517 222.564,161.206 222.639 L 149.470 222.758 149.654 224.879 C 149.908 227.800,149.823 232.894,149.493 234.523 C 148.990 237.011,147.348 239.496,147.348 237.770 C 147.348 235.556,140.123 227.919,126.553 215.792 C 124.652 214.093,120.492 210.169,111.129 201.241 C 104.065 194.505,99.518 188.346,99.518 185.513 C 99.518 185.271,99.277 184.526,98.983 183.858 C 98.089 181.824,97.466 177.322,97.741 174.883 C 98.263 170.237,98.379 169.497,98.790 168.177 C 99.613 165.538,101.609 161.774,103.596 159.113 C 106.682 154.981,109.298 152.808,114.673 149.913 C 116.127 149.130,118.990 147.170,119.126 146.866 C 119.196 146.707,119.442 146.577,119.671 146.577 C 120.155 146.577,121.817 145.547,129.990 140.187 C 133.279 138.030,137.420 135.447,139.194 134.446 C 140.968 133.445,143.567 131.841,144.970 130.880 C 146.373 129.920,147.891 128.993,148.343 128.821 C 148.796 128.649,150.102 127.917,151.247 127.193 C 152.391 126.470,154.455 125.320,155.834 124.638 C 158.669 123.236,159.621 122.680,160.378 121.986 C 160.667 121.721,161.152 121.504,161.455 121.504 C 161.758 121.504,162.006 121.350,162.006 121.160 C 162.006 120.971,162.440 120.708,162.970 120.574 C 163.500 120.441,163.934 120.162,163.934 119.954 C 163.934 119.746,164.238 119.581,164.609 119.588 C 165.252 119.600,165.252 119.625,164.609 120.113 M268.660 139.634 C 270.773 141.755,272.589 143.491,272.695 143.491 C 272.801 143.491,271.159 141.755,269.045 139.634 C 266.932 137.512,265.116 135.776,265.010 135.776 C 264.904 135.776,266.546 137.512,268.660 139.634 M263.625 143.737 C 263.636 146.100,263.773 147.836,263.929 147.594 C 264.274 147.058,264.233 142.194,263.868 140.598 C 263.723 139.961,263.614 141.373,263.625 143.737 M262.649 149.535 C 262.348 150.101,261.425 151.056,260.598 151.656 C 259.770 152.257,259.223 152.748,259.381 152.748 C 260.333 152.748,263.847 149.157,263.366 148.677 C 263.273 148.583,262.950 148.969,262.649 149.535 M278.709 148.913 C 279.029 149.635,284.522 154.307,285.016 154.277 C 285.142 154.270,284.755 153.879,284.154 153.409 C 283.554 152.940,282.028 151.611,280.763 150.456 C 279.498 149.301,278.574 148.607,278.709 148.913 M287.209 156.814 C 288.463 157.990,290.183 159.483,291.032 160.133 C 292.260 161.073,292.339 161.101,291.418 160.267 C 290.781 159.691,289.196 158.198,287.896 156.948 C 286.596 155.699,285.396 154.677,285.231 154.677 C 285.065 154.677,285.955 155.639,287.209 156.814 M239.445 156.493 C 239.925 156.585,240.619 156.581,240.988 156.485 C 241.357 156.388,240.964 156.313,240.116 156.317 C 239.267 156.321,238.965 156.400,239.445 156.493 M233.365 157.377 C 232.031 157.658,232.029 157.662,233.173 157.706 C 233.809 157.731,234.590 157.583,234.908 157.377 C 235.551 156.962,235.337 156.962,233.365 157.377 M227.580 158.534 C 226.785 158.789,226.751 158.849,227.387 158.876 C 227.811 158.894,228.419 158.740,228.737 158.534 C 229.413 158.097,228.943 158.097,227.580 158.534 M296.239 164.899 C 298.246 166.914,299.975 168.563,300.081 168.563 C 300.187 168.563,298.632 166.914,296.625 164.899 C 294.618 162.883,292.889 161.234,292.783 161.234 C 292.677 161.234,294.232 162.883,296.239 164.899 M196.504 169.431 L 195.371 170.685 196.625 169.552 C 197.314 168.929,197.878 168.365,197.878 168.298 C 197.878 168.000,197.560 168.263,196.504 169.431 M308.620 177.605 C 309.066 178.360,309.504 178.978,309.595 178.978 C 309.869 178.978,308.617 176.730,308.199 176.472 C 307.985 176.340,308.174 176.849,308.620 177.605 M312.467 188.075 C 312.482 188.693,312.648 189.547,312.836 189.971 C 313.064 190.486,313.101 190.166,312.948 189.007 C 312.677 186.962,312.428 186.480,312.467 188.075 M236.451 195.757 C 237.171 196.500,237.847 197.107,237.953 197.107 C 238.059 197.107,237.557 196.500,236.837 195.757 C 236.117 195.014,235.442 194.407,235.336 194.407 C 235.230 194.407,235.732 195.014,236.451 195.757 M234.083 210.807 C 232.674 212.182,231.638 213.308,231.780 213.308 C 231.922 213.308,233.156 212.179,234.523 210.800 C 235.889 209.421,236.926 208.296,236.826 208.300 C 236.726 208.304,235.492 209.432,234.083 210.807 M306.443 210.704 L 304.918 212.343 306.557 210.819 C 307.459 209.980,308.197 209.242,308.197 209.179 C 308.197 208.887,307.861 209.179,306.443 210.704 M226.230 217.392 L 225.072 218.386 226.326 217.556 C 227.015 217.100,227.580 216.652,227.580 216.560 C 227.580 216.271,227.416 216.372,226.230 217.392 M221.601 220.477 L 220.444 221.472 221.697 220.642 C 222.387 220.186,222.951 219.737,222.951 219.646 C 222.951 219.357,222.787 219.458,221.601 220.477 M291.803 221.635 L 290.646 222.629 291.900 221.799 C 292.589 221.343,293.153 220.895,293.153 220.803 C 293.153 220.514,292.990 220.615,291.803 221.635 M287.753 224.541 C 286.409 225.719,286.408 225.721,287.645 224.898 C 288.328 224.444,288.989 223.907,289.114 223.704 C 289.486 223.102,289.178 223.292,287.753 224.541 M211.083 226.974 C 208.407 228.636,207.966 229.169,210.415 227.781 C 212.877 226.386,213.965 225.643,213.490 225.682 C 213.284 225.698,212.201 226.280,211.083 226.974 M281.003 228.963 L 279.846 229.958 281.099 229.128 C 281.789 228.672,282.353 228.224,282.353 228.132 C 282.353 227.843,282.190 227.944,281.003 228.963 M195.178 235.309 C 194.012 235.910,193.182 236.413,193.336 236.427 C 193.690 236.458,197.878 234.483,197.878 234.285 C 197.878 233.999,197.280 234.226,195.178 235.309 M265.188 239.378 L 264.031 240.372 265.284 239.543 C 265.974 239.086,266.538 238.638,266.538 238.547 C 266.538 238.258,266.375 238.358,265.188 239.378 M185.149 239.730 C 183.890 240.450,184.331 240.458,185.973 239.745 C 186.687 239.435,187.011 239.181,186.692 239.180 C 186.374 239.179,185.680 239.427,185.149 239.730 M173.385 243.987 C 171.854 244.688,172.594 244.686,174.542 243.984 C 175.391 243.678,175.738 243.435,175.313 243.443 C 174.889 243.451,174.021 243.696,173.385 243.987 M166.598 247.734 C 165.697 248.423,164.887 249.206,164.799 249.473 C 164.711 249.741,165.131 249.478,165.733 248.891 C 166.335 248.303,167.261 247.530,167.792 247.172 C 168.322 246.814,168.639 246.512,168.497 246.500 C 168.354 246.489,167.500 247.044,166.598 247.734 M162.063 252.678 C 160.716 254.846,160.405 255.818,161.641 254.002 C 162.613 252.573,163.619 250.723,163.423 250.723 C 163.344 250.723,162.732 251.603,162.063 252.678 M239.730 256.154 C 237.442 257.884,237.134 258.372,239.280 256.868 C 240.900 255.732,241.783 254.942,241.392 254.977 C 241.327 254.983,240.579 255.513,239.730 256.154 M160.159 256.136 C 159.902 256.548,159.692 257.104,159.694 257.372 C 159.695 257.640,159.959 257.356,160.279 256.741 C 160.948 255.459,160.859 255.014,160.159 256.136 M159.160 259.031 C 159.028 259.376,158.935 259.948,158.953 260.302 C 158.971 260.655,159.139 260.433,159.326 259.807 C 159.690 258.590,159.561 257.987,159.160 259.031 M158.614 264.276 C 158.560 266.505,158.721 268.036,159.098 268.905 C 159.511 269.856,159.665 269.991,159.676 269.412 C 159.685 268.977,159.525 268.455,159.322 268.252 C 159.119 268.049,158.894 266.321,158.823 264.414 L 158.693 260.945 158.614 264.276 M227.029 264.620 C 226.195 265.251,225.675 265.762,225.871 265.756 C 226.236 265.746,229.089 263.473,228.737 263.473 C 228.631 263.474,227.862 263.990,227.029 264.620 M221.814 267.920 C 217.472 270.702,216.877 271.404,221.022 268.855 C 223.875 267.100,225.818 265.696,225.251 265.799 C 225.153 265.817,223.606 266.771,221.814 267.920 M212.343 274.094 L 211.186 275.088 212.440 274.258 C 213.129 273.802,213.693 273.354,213.693 273.262 C 213.693 272.973,213.530 273.074,212.343 274.094 M161.620 273.903 C 161.620 274.283,163.505 276.355,163.678 276.165 C 163.766 276.068,163.339 275.468,162.729 274.831 C 162.120 274.195,161.621 273.777,161.620 273.903 M207.715 277.179 L 206.557 278.174 207.811 277.344 C 208.500 276.888,209.065 276.440,209.065 276.348 C 209.065 276.059,208.901 276.160,207.715 277.179 M165.461 278.206 C 167.060 279.909,167.406 280.216,167.406 279.926 C 167.406 279.864,166.581 279.040,165.574 278.094 L 163.742 276.374 165.461 278.206 M202.971 280.204 C 201.180 281.471,200.928 281.833,202.440 280.966 C 203.146 280.562,203.905 280.014,204.127 279.749 C 204.697 279.068,204.430 279.173,202.971 280.204 M168.177 280.938 C 168.177 281.044,168.872 281.681,169.720 282.353 C 170.569 283.025,171.263 283.488,171.263 283.382 C 171.263 283.276,170.569 282.639,169.720 281.967 C 168.872 281.295,168.177 280.832,168.177 280.938 M195.013 285.274 C 192.613 286.793,190.513 288.425,192.093 287.543 C 193.710 286.641,197.878 283.876,197.878 283.706 C 197.878 283.446,198.046 283.354,195.013 285.274 M173.963 285.635 C 173.963 285.916,178.240 288.620,178.412 288.447 C 178.490 288.369,177.521 287.660,176.259 286.871 C 174.996 286.082,173.963 285.526,173.963 285.635 M188.405 289.091 C 187.431 289.828,187.853 289.835,189.252 289.106 C 189.860 288.789,190.086 288.528,189.755 288.527 C 189.425 288.526,188.817 288.779,188.405 289.091 " stroke="none" fill="#8ce7ab" fill-rule="evenodd"></path><path id="path4" d="M210.228 90.932 C 209.749 91.119,207.925 92.202,200.964 96.427 C 200.646 96.620,199.691 97.151,198.843 97.606 C 195.837 99.221,195.300 100.289,197.496 100.289 C 198.110 100.289,198.750 100.529,198.920 100.822 C 199.090 101.115,200.617 101.997,202.314 102.782 C 204.012 103.566,206.648 104.802,208.173 105.527 C 209.698 106.253,211.073 106.847,211.228 106.847 C 211.384 106.847,211.787 107.096,212.123 107.401 C 212.460 107.706,213.168 108.049,213.697 108.163 C 216.401 108.748,221.947 111.251,225.043 113.286 C 226.094 113.977,227.731 114.651,228.707 114.796 C 229.771 114.954,231.316 115.624,232.594 116.483 C 234.976 118.084,236.387 118.566,237.057 118.010 C 237.562 117.591,238.868 117.940,238.575 118.415 C 238.472 118.581,238.645 118.930,238.959 119.190 C 239.272 119.450,239.455 119.782,239.365 119.927 C 239.276 120.072,239.362 120.443,239.557 120.751 C 240.338 121.987,240.112 115.520,239.287 113.026 C 237.500 107.629,231.954 100.747,224.222 94.333 C 220.483 91.230,213.680 89.577,210.228 90.932 " stroke="none" fill="#b2f490" fill-rule="evenodd"></path></g></svg>